<svg data-v-423bf9ae="" xmlns="http://www.w3.org/2000/svg" viewBox="0 0 NaN NaN" class="iconLeft"><!----><!----><!----><g data-v-423bf9ae="" id="26a04a80-2499-454f-b99b-48047eafcad5" fill="#08374E" transform="matrix(5.424954586220476,0,0,5.424954586220476,-110.38049291286359,-38.09885957815347)"><path d="M9.11 3.78L9.11 12.40L2.27 3.78L1.48 3.78L1.48 14L2.48 14L2.48 5.64L9.20 14L10.09 14L10.09 3.78ZM15.82 6.58C13.78 6.58 12.19 8.19 12.19 10.33C12.19 12.50 13.73 14.14 15.83 14.14C17.50 14.14 18.76 13.06 19.00 11.76L18.00 11.76C17.79 12.66 16.94 13.23 15.83 13.23C14.39 13.23 13.33 12.15 13.22 10.63L19.04 10.63L19.14 10.54C19.32 8.41 17.84 6.58 15.82 6.58ZM13.26 9.74C13.51 8.39 14.57 7.48 15.81 7.48C17.09 7.48 17.99 8.48 18.13 9.76ZM24.78 6.58C23.59 6.58 22.67 6.99 22.04 7.78L22.04 3.08L21.04 3.08L21.04 14L21.76 14L21.97 12.87C22.60 13.69 23.49 14.14 24.77 14.14C26.75 14.14 28.38 12.46 28.38 10.33C28.38 8.23 26.74 6.58 24.78 6.58ZM24.70 13.23C23.42 13.23 22.58 12.61 22.08 11.61L22.08 9.10C22.55 8.13 23.41 7.49 24.70 7.49C26.08 7.49 27.31 8.72 27.31 10.33C27.31 11.96 26.10 13.23 24.70 13.23ZM35.64 6.72L35.64 12.18C34.71 12.82 33.75 13.22 32.93 13.22C31.84 13.22 31.23 12.60 31.23 11.42L31.23 6.72L30.18 6.72L30.18 11.47C30.18 13.22 31.12 14.14 32.66 14.14C33.74 14.14 34.69 13.78 35.77 13.06L35.95 14L36.69 14L36.69 6.72ZM40.19 3.08L39.14 3.08L39.14 14L40.19 14ZM45.39 6.58C43.67 6.58 42.45 7.56 42.35 9.02L43.34 9.02C43.40 8.18 44.20 7.49 45.35 7.49C46.63 7.49 47.39 8.16 47.39 9.67L47.39 9.94L45.12 9.93C43.20 9.93 42.06 10.79 42.06 12.01C42.06 13.27 43.11 14.14 44.45 14.14C45.74 14.14 46.76 13.55 47.52 12.96L47.73 14L48.41 14L48.41 9.67C48.41 7.70 47.32 6.58 45.39 6.58ZM43.09 12.00C43.09 11.19 43.81 10.79 45.14 10.79L47.39 10.79L47.39 12.11C46.63 12.70 45.68 13.22 44.66 13.22C43.81 13.22 43.09 12.78 43.09 12.00Z"></path></g><defs data-v-423bf9ae=""><linearGradient data-v-423bf9ae="" gradientTransform="rotate(25)" id="c63bb01d-19fe-4da2-8ba5-d78b07fd6684" x1="0%" y1="0%" x2="100%" y2="0%"><stop data-v-423bf9ae="" offset="0%" style="stop-color: rgb(13, 124, 233); stop-opacity: 1;"></stop><stop data-v-423bf9ae="" offset="100%" style="stop-color: rgb(21, 207, 241); stop-opacity: 1;"></stop></linearGradient></defs><g data-v-423bf9ae="" id="3d053823-65fc-4af4-a436-7c3456067814" transform="matrix(Infinity,0,0,Infinity,0,0)" stroke="none" fill="url(#c63bb01d-19fe-4da2-8ba5-d78b07fd6684)"></g><!----></svg>