<svg data-v-423bf9ae="" xmlns="http://www.w3.org/2000/svg" viewBox="0 0 335 90" class="iconLeft"><!----><!----><!----><g data-v-423bf9ae="" id="9ab2d350-a07b-4b15-87d9-3ad1780d3ccd" fill="#022239" transform="matrix(5.272407679843658,0,0,5.272407679843658,105.51844598972627,18.69068370371315)"><path d="M6.82-0.42L8.60-0.42L8.60 10.50L6.61 10.50L2.58 2.97L2.63 5.28L2.63 10.50L0.85 10.50L0.85-0.42L2.84-0.42L6.87 7.11L6.82 4.80L6.82-0.42ZM16.67 6.61L16.67 7.46L11.77 7.46Q11.87 9.27 13.44 9.27L13.44 9.27Q14.14 9.27 14.55 8.93Q14.95 8.58 14.95 8.12L14.95 8.12L16.67 8.12L16.67 8.18Q16.67 9.23 15.81 9.95Q14.95 10.68 13.43 10.68L13.43 10.68Q11.70 10.68 10.83 9.66Q9.95 8.64 9.95 6.97L9.95 6.97L9.95 6.61Q9.95 4.94 10.82 3.92Q11.69 2.90 13.36 2.90L13.36 2.90Q14.99 2.90 15.83 3.92Q16.67 4.94 16.67 6.61L16.67 6.61ZM13.31 4.31L13.31 4.31Q11.89 4.31 11.77 6.12L11.77 6.12L14.84 6.12Q14.76 4.31 13.31 4.31ZM17.99-0.70L19.81-0.70L19.81 3.77Q20.54 2.90 21.78 2.90L21.78 2.90Q24.56 2.90 24.56 6.57L24.56 6.57L24.56 7.01Q24.56 8.71 23.89 9.70Q23.23 10.68 21.78 10.68L21.78 10.68Q20.36 10.68 19.64 9.58L19.64 9.58L19.49 10.50L17.88 10.50L17.99 8.40L17.99-0.70ZM19.81 5.33L19.81 5.33L19.81 8.25Q20.34 9.09 21.27 9.09L21.27 9.09Q22.74 9.09 22.74 7.01L22.74 7.01L22.74 6.57Q22.74 4.48 21.27 4.48L21.27 4.48Q20.36 4.48 19.81 5.33ZM25.80 8.15L25.80 3.08L27.61 3.08L27.61 7.87Q27.61 9.09 28.80 9.09L28.80 9.09Q29.81 9.09 30.34 8.25L30.34 8.25L30.34 3.08L32.16 3.08L32.16 8.40L32.27 10.50L30.66 10.50L30.49 9.52Q29.69 10.68 28.08 10.68L28.08 10.68Q26.94 10.68 26.37 9.97Q25.80 9.25 25.80 8.15L25.80 8.15ZM35.62 10.50L33.80 10.50L33.80-0.70L35.62-0.70L35.62 10.50ZM43.34 10.50L41.73 10.50L41.59 9.65Q40.70 10.68 39.17 10.68L39.17 10.68Q38.05 10.68 37.49 10.07Q36.93 9.45 36.93 8.50L36.93 8.50L36.93 8.36Q36.93 7.24 37.61 6.73Q38.29 6.22 39.52 6.03L39.52 6.03L41.41 5.74L41.41 5.71Q41.41 4.98 41.14 4.65Q40.87 4.31 40.18 4.31L40.18 4.31Q38.95 4.31 38.95 5.53L38.95 5.53L37.21 5.53L37.21 5.40Q37.21 4.33 37.91 3.61Q38.60 2.90 40.22 2.90L40.22 2.90Q41.87 2.90 42.55 3.61Q43.23 4.33 43.23 5.71L43.23 5.71L43.23 8.40L43.34 10.50ZM39.80 9.18L39.80 9.18Q40.84 9.18 41.41 8.41L41.41 8.41L41.41 6.85L39.86 7.10Q38.75 7.28 38.75 8.16L38.75 8.16L38.75 8.27Q38.75 8.65 39.02 8.92Q39.28 9.18 39.80 9.18Z"></path></g><defs data-v-423bf9ae=""><linearGradient data-v-423bf9ae="" gradientTransform="rotate(25)" id="89851f96-a0af-47e9-876c-3012d06845d0" x1="0%" y1="0%" x2="100%" y2="0%"><stop data-v-423bf9ae="" offset="0%" style="stop-color: rgb(0, 10, 104); stop-opacity: 1;"></stop><stop data-v-423bf9ae="" offset="100%" style="stop-color: rgb(0, 196, 238); stop-opacity: 1;"></stop></linearGradient></defs><g data-v-423bf9ae="" id="3a7ec601-0fa7-4bd1-a28e-6369aac967e2" transform="matrix(2.8125,0,0,2.8125,0,0)" stroke="none" fill="url(#89851f96-a0af-47e9-876c-3012d06845d0)"><path d="M9.382 8.675h13.943v13.943L32 31.293V0H.707zM22.618 23.325H8.675V9.382L0 .707V32h31.293z"></path></g><!----></svg>