<svg data-v-423bf9ae="" xmlns="http://www.w3.org/2000/svg" viewBox="0 0 363 90" class="iconLeft"><!----><!----><!----><g data-v-423bf9ae="" id="b7148ff9-191f-4eda-b1ca-c26e1882ed5d" fill="white" transform="matrix(5.836575485636349,0,0,5.836575485636349,103.28794127958983,0.23346251939574358)"><path d="M8.97 12.67L7.40 12.67L2.24 4.47L2.28 5.13L2.31 6.28L2.31 12.67L1.15 12.67L1.15 3.04L2.67 3.04L7.88 11.30Q7.79 9.96 7.79 9.36L7.79 9.36L7.79 3.04L8.97 3.04L8.97 12.67ZM17.27 9.24L12.00 9.24Q12.00 10.51 12.52 11.20Q13.05 11.89 14.06 11.89L14.06 11.89Q14.86 11.89 15.34 11.57Q15.83 11.25 16.00 10.75L16.00 10.75L17.08 11.06Q16.41 12.81 14.06 12.81L14.06 12.81Q12.42 12.81 11.56 11.83Q10.71 10.86 10.71 8.93L10.71 8.93Q10.71 7.10 11.56 6.12Q12.42 5.14 14.01 5.14L14.01 5.14Q17.27 5.14 17.27 9.07L17.27 9.07L17.27 9.24ZM12.01 8.29L16.00 8.29Q15.90 7.12 15.41 6.59Q14.92 6.05 13.99 6.05L13.99 6.05Q13.10 6.05 12.57 6.65Q12.05 7.25 12.01 8.29L12.01 8.29ZM25.09 8.94L25.09 8.94Q25.09 12.81 22.37 12.81L22.37 12.81Q21.53 12.81 20.98 12.51Q20.42 12.20 20.07 11.53L20.07 11.53L20.06 11.53Q20.06 11.74 20.03 12.17Q20.00 12.61 19.99 12.67L19.99 12.67L18.80 12.67Q18.84 12.30 18.84 11.15L18.84 11.15L18.84 2.53L20.07 2.53L20.07 5.42Q20.07 5.87 20.04 6.47L20.04 6.47L20.07 6.47Q20.41 5.76 20.98 5.45Q21.54 5.14 22.37 5.14L22.37 5.14Q23.78 5.14 24.44 6.08Q25.09 7.03 25.09 8.94ZM23.80 8.98L23.80 8.98Q23.80 7.43 23.39 6.76Q22.98 6.09 22.06 6.09L22.06 6.09Q21.02 6.09 20.55 6.80Q20.07 7.51 20.07 9.06L20.07 9.06Q20.07 10.51 20.54 11.21Q21 11.90 22.05 11.90L22.05 11.90Q22.98 11.90 23.39 11.21Q23.80 10.53 23.80 8.98ZM26.59 5.28L27.83 5.28L27.83 9.97Q27.83 10.70 27.97 11.10Q28.12 11.50 28.43 11.68Q28.75 11.86 29.35 11.86L29.35 11.86Q30.24 11.86 30.75 11.25Q31.27 10.64 31.27 9.56L31.27 9.56L31.27 5.28L32.50 5.28L32.50 11.09Q32.50 12.39 32.54 12.67L32.54 12.67L31.38 12.67Q31.37 12.64 31.36 12.49Q31.36 12.34 31.35 12.14Q31.34 11.95 31.32 11.41L31.32 11.41L31.30 11.41Q30.88 12.17 30.32 12.49Q29.76 12.81 28.94 12.81L28.94 12.81Q27.72 12.81 27.16 12.21Q26.59 11.60 26.59 10.21L26.59 10.21L26.59 5.28ZM35.64 12.67L34.41 12.67L34.41 2.53L35.64 2.53L35.64 12.67ZM39.41 12.81L39.41 12.81Q38.29 12.81 37.73 12.22Q37.17 11.63 37.17 10.61L37.17 10.61Q37.17 9.46 37.93 8.85Q38.68 8.23 40.37 8.19L40.37 8.19L42.03 8.16L42.03 7.76Q42.03 6.86 41.64 6.47Q41.26 6.08 40.44 6.08L40.44 6.08Q39.61 6.08 39.24 6.36Q38.86 6.64 38.79 7.25L38.79 7.25L37.50 7.14Q37.82 5.14 40.47 5.14L40.47 5.14Q41.86 5.14 42.57 5.78Q43.27 6.42 43.27 7.63L43.27 7.63L43.27 10.81Q43.27 11.36 43.42 11.64Q43.56 11.92 43.96 11.92L43.96 11.92Q44.14 11.92 44.37 11.87L44.37 11.87L44.37 12.63Q43.90 12.74 43.42 12.74L43.42 12.74Q42.73 12.74 42.42 12.38Q42.11 12.02 42.07 11.26L42.07 11.26L42.03 11.26Q41.56 12.11 40.93 12.46Q40.30 12.81 39.41 12.81ZM39.69 11.89L39.69 11.89Q40.37 11.89 40.89 11.58Q41.42 11.27 41.72 10.74Q42.03 10.20 42.03 9.63L42.03 9.63L42.03 9.02L40.68 9.05Q39.81 9.06 39.36 9.23Q38.92 9.39 38.68 9.73Q38.44 10.08 38.44 10.63L38.44 10.63Q38.44 11.23 38.76 11.56Q39.09 11.89 39.69 11.89Z"></path></g><!----><g data-v-423bf9ae="" id="38a5ce76-0c83-4973-9d3e-0284fb3a203a" transform="matrix(2.8125,0,0,2.8125,0,0)" stroke="none" fill="white"><path d="M15.965 16.258l.707-.707 10.39 10.39-.707.707z"></path><path d="M4.935 26.357L26.018 5.274l.707.707L5.642 27.065z"></path><path d="M31 1v4.194h-4.194V1H31m1-1h-6.194v6.194H32V0zM31 26.806V31h-4.194v-4.194H31m1-1h-6.194V32H32v-6.194zM5.194 26.806V31H1v-4.194h4.194m1-1H0V32h6.194v-6.194z"></path></g><!----></svg>